<svg height="50" viewBox="0 0 140 50" width="140" xmlns="http://www.w3.org/2000/svg" xmlns:xlink="http://www.w3.org/1999/xlink"><mask id="a" fill="#fff"><path d="m0 0h20.5772438v47.9999111h-20.5772438z" fill="#fff" fill-rule="evenodd"/></mask><g fill="none" fill-rule="evenodd" transform="translate(3 1)"><path d="m26.550314 30.8008632h-14.2477952l1.2315417-6.6017264h14.2477951zm4.3977183-.1711297 2.0519677-10.1297335h-22.9254479l-2.00819356 11.2037049c-.30145468 1.8153865.42420269 2.7473379 2.17652086 2.7962951h21.6429116c-.9206101-.8208052-1.2333468-2.1108941-.9377587-3.8702665z" fill="#e00012"/><path d="m23.5652986 1.5h3.5657413l-.5754051 2.478957h11.4443652l-7.591364 9.5036597 1.4956107 1.5937785h4.2557848l-.6904862 3.4236048h-5.2910714l-1.8399685-2.1248856-1.7124941 2.1248856-6.6260113-.0590119.6878304-3.4341263h3.6861337l1.0317457-1.2291857-3.8530012-4.36779504h4.6005852l1.4376276 1.59332114 2.9907787-3.77721867h-8.338948z" fill="#e00012"/><path d="m14.8359312 13.3043556h-6.36606245l1.421-7.45466671h6.53668745zm.8404375-10.49422227.8649376-2.81022222h-4.14925l-.8531251 2.75244445h-4.71799995l-6.8210625 45.24755554 7.7875-31.1395555h9.66349995l3.126375-14.10800004z" fill="#e00012" mask="url(#a)" transform="translate(0 .5)"/><path d="m65.1371159 12.9373651h-8.2423491l1.0445342-5.66215312h8.1266373zm-1.4510895 9.494545h-8.4165871l1.0154946-5.8913164h8.3299149zm-5.105619-18.9319101c-2.5943586 0-4.104421 1.14448718-4.5297403 3.43213178l-5.0506671 27.10998472h4.0052393l1.6838536-8.1785178h8.3585078l-1.1173568 5.8718132c-.261357 1.1240974-1.1660541 2.0456267-2.7136446 2.7645881h6.6170217l5.166379-31z" fill="#2d2e4b"/><path d="m46.7581019 16.6443714h-5.2719021l1.7956483-9.65465145 5.1564134-.05814697zm-2.2580489 14.0170268h-5.7949454l2.1438979-10.4110129h5.5617385zm-4.4839929-27.1613982-4.9459475 27.5107308c-.3433447 2.3263297.5743221 3.4892692 2.7534463 3.4892692h9.5717373l4.6712717-27.626574c.3460202-1.76694681.9903489-2.89112164 1.9334321-3.373426z" fill="#2d2e4b"/><path d="m34.5176786 39.3020352h2.2970007l-.4620824 2.4893617c-.2710721.1979648-.6031049.3654024-.9965049.5023126-.3929936.1373728-.7941152.2062905-1.2025522.2062905-.6348045 0-1.1216777-.1628122-1.460213-.487049-.4620824-.4431083-.6933268-1.0855689-.6933268-1.9273821 0-.5647548.0991628-1.1054579.2978948-1.6225717.2381533-.6225717.5766886-1.1054579 1.0151996-1.4486586.4389173-.3427382.9546452-.5143386 1.54759-.5143386s1.068845.1558742 1.4268877.46716c.3584492.3112859.5957897.7650324.7124279 1.3612396l-.9835.1267345c-.0865642-.3274745-.2259611-.5740055-.418597-.7400555-.192636-.1665125-.4348533-.2493062-.7266521-.2493062-.3405673 0-.6534991.1003701-.938389.3006476-.2848899.20074-.5075998.5106383-.6685361.9301572-.1613428.419519-.241811.8769658-.241811 1.3732655 0 .4879741.0979436.8487512.2942372 1.0823312.1958872.23358.4832155.3501388.8611721.3501388.2263675 0 .4588312-.0360777.6969845-.1086957.2381533-.0726179.4433878-.1591119.6161099-.2594819l.1576851-.8626272h-1.3094368z" fill="#2d2e4b"/><path d="m29.7511055 42.5h-1.147031l-1.6165508-4.0315714-.8404927 4.0315714h-1.147031l1.2488945-6h1.151295l1.6203411 4.0153073.8367025-4.0153073h1.1427669z" fill="#2d2e4b"/><path d="m23 42.5 1.0099275-6h.9900725l-1.006491 6z" fill="#2d2e4b"/><path d="m19.4427083 42.5h-1.1666666l-.2159091-5.0136331-.9507576 5.0136331h-1.109375l1.2481061-6h1.7542613l.1837121 4.2033006 2.0392993-4.2033006h1.7746212l-1.2523674 6h-1.1216856l1.1785038-4.9767998z" fill="#2d2e4b"/><path d="m13 42.5 1.0099275-6h.9900725l-1.006491 6z" fill="#2d2e4b"/><path d="m78 42.5 1.0982418-6h3.9017582l-.1829014 1.0026309h-2.8176819l-.2516457 1.3628319h2.7243563l-.1829014 1.0031093h-2.7243563l-.3299725 1.628797h3.0618282l-.1870678 1.0026309z" fill="#2d2e4b"/><path d="m74.7884084 38.6238938c-.104861.1693375-.2503658.2932313-.4357015.3726381-.1857422.0789285-.5621037.1186319-1.1294912.1186319h-.5600715l.2873517-1.6125329h1.1624126c.3105186 0 .5125183.0325282.6055926.0980627.1516013.1090648.2276052.2726621.2276052.49127 0 .1851232-.0524305.3625927-.1576979.5319302m1.2115916-.5524994c0-.3573308-.0670623-.6620426-.2015932-.9127003-.1341246-.2511361-.3101122-.4238221-.5283694-.5180579-.2186636-.0937575-.5238986-.1406362-.9157048-.1406362h-2.2797106l-1.074622 6h1.0571452l.4446431-2.4845731h.4308243c.2499593 0 .4247277.0397035.5255243.1186319.1629816.1339393.317428.3941641.4617135.7821096.2666233.7175317.4450496 1.245635.5360917 1.5838316h1.1347749c-.2897903-.8567328-.5523493-1.5202105-.7884897-1.9894762-.1186799-.2320019-.245895-.4185602-.3812388-.5606314.5295886-.0789285.9254592-.2841426 1.1872053-.6161206.2609332-.3310213.3918062-.7519732.3918062-1.2623774" fill="#2d2e4b"/><path d="m66.7392767 36.5h1.0904121l-.6013457 3.2034177-.148444.7882731c-.009672.0672572-.0147183.1302815-.0147183.189543 0 .2332837.0769554.4256487.2300253.5775653.1534903.1514463.3763667.2271694.6686291.2271694.2632464 0 .480656-.0550286.6522287-.1650858.1715728-.1100573.3044575-.2737321.3982338-.4910246.0941968-.2172924.1896552-.5860312.2863751-1.1062162l.6084946-3.2236419h1.0908326l-.6051304 3.2274046c-.1278385.6786862-.2754415 1.1979305-.441968 1.5572626-.1665265.3598025-.4188394.6518774-.7573591.8776358-.3380993.2252881-.7653491.337697-1.2821699.337697-.6185871 0-1.0920942-.1683781-1.4205215-.5051344-.3284272-.3367563-.4928511-.7689896-.4928511-1.2976405 0-.1100573.0084104-.2295211.0256518-.3579212.009672-.0860704.0517241-.3301717.126577-.7327742z" fill="#2d2e4b"/><path d="m61.9735322 42.5h-1.2521655l1.0615977-4.9973691h-1.7829644l.2112608-1.0026309h4.7887392l-.2112608 1.0026309h-1.7579404z" fill="#2d2e4b"/><path d="m57.7512041 42.5h-1.1469404l-1.6164232-4.0315714-.8404264 4.0315714h-1.1474141l1.2492696-6h1.1507304l1.6206869 4.0153073.8366364-4.0153073h1.1426767z" fill="#2d2e4b"/><path d="m48 42.5 1.0982418-6h3.9017582l-.1829014 1.0026309h-2.8176819l-.251229 1.3628319h2.7243563l-.1833181 1.0031093h-2.7243563l-.3303891 1.628797h3.0622448l-.1866511 1.0026309z" fill="#2d2e4b"/><path d="m45.099825 42.5h-1.155737l-.944088-6h1.0803266l.6678611 4.5391055 2.1785684-4.5391055h1.0732439z" fill="#2d2e4b"/><path d="m10.7534592 39.6954804c-.1298225.3464578-.3011558.6288645-.5135927.8472203-.2315644-.2732566-.50504638-.4903646-.82044602-.651324l-.38580498.5976709c.16604265.0615555.32272505.1638707.47004721.3061139.06999837.0665465.10499755.1089699.10499755.1281021 0 .0141411-.00406967.0249549-.01220901.0320255-.00813935.0070705-.03092952.0141411-.06837051.0216276-.10540452.0141411-.20592544.0212117-.30156275.0212117-.34348039 0-.62591568-.1168723-.84689891-.350617-.22057627-.2337446-.33127137-.5535838-.33127137-.9591016 0-.3015389.05209181-.6026618.15586847-.9037848.10418362-.3015389.23848283-.5539997.40330458-.7582144.16482174-.2037986.34551522-.359767.54208041-.4679051.19615823-.1077222.40981605-.1617912.64138044-.1617912.33656189 0 .61370669.1164564.83102719.350201s.3259808.557327.3259808.9699154c0 .306114-.0647078.6321919-.1945304.9786497m.932769.4591709c.2091812-.4649937.3137718-.9516151.3137718-1.4590323 0-.6642174-.1953443-1.1965895-.5856259-1.5962845s-.9034674-.5993345-1.53915027-.5993345c-.55876607 0-1.05730099.1414113-1.49560475.4250659-.43830376.2836545-.77771447.6933314-1.01823214 1.2294468-.24092463.5361153-.36138694 1.0664079-.36138694 1.5908776 0 .6405102.19330946 1.159573.58033534 1.5567725.38661892.3976154.89329318.5960072 1.52002279.5960072.18679798 0 .36789842-.0166367.54330132-.049494.1754029-.0332733.34470129-.0819354.50830215-.1459864.2759238.370165.5774866.6355192.9046882.7973104l.498128-.6654651c-.2478431-.1426591-.4838841-.3252461-.7081231-.5481769.3503989-.2894774.6303923-.6667129.8395735-1.1317067" fill="#e00012"/><g fill="#2d2e4b"><path d="m114.542663 17.5h18.9844l-8.279815 10.1538645 2.898163 2.7847696 5.854589.0580066-1.064222 4.0033593-7.451834-.057557-3.016055-3.3072793-2.602293 3.1332593h-7.865596l.532111-3.7717823h4.672474l2.483489-2.6107496-5.027063-5.3959689h5.500456l2.1289 2.4367297 3.252751-3.8293393h-11.59174z"/><path d="m118.823452 16.3892923h-3.823452l2.176357-11.79337182c9.617262-.67025349 13.989897 2.17210188 13.117905 8.52663702h3.705738l-.882405 3.3774425-7.11719-.0557829c1.934137-6.41418.071534-9.27498666-5.588715-8.5819909z"/><path d="m109.905284 3.5h3.806164l-.526869 3.71528503h1.815421l-.58546 3.30902417h-1.698689l-3.806164 23.9756908h-5.972681c1.462973-.4413532 2.380148-1.6020986 2.752427-3.4808865l1.639197-10.0453964-5.32863 3.5411732.761233-4.9345176 5.211898-3.5407233.819374-5.2251539h-4.391624l.527319-3.59921047h4.274442z"/><path d="m99.4801995 3.5h3.5198005l-4.469622 31h-5.530378c1.0547362-.4535005 1.7435611-1.3618513 2.0673346-2.7237025z"/><path d="m92.6218337 13.5h3.3781663l-2.8540686 16h-3.1459314z"/><path d="m83.8780907 31.4632007h-5.6317122l.5227788-3.3127942h5.5731788zm-7.7210399-5.9632007-1.1469855 7.1715875c-.0871297 1.2190843.3914139 1.8284125 1.4356309 1.8284125h9.9868612l1.5674426-9z"/><path d="m86.0557337 16.8887299h-9.6189318l.2870729-1.3814073h9.5981422zm-.7683291 3.9711556h-9.5406391l.4025212-1.6111214 9.4627889-.0579861zm-.6900365-8.1724715.9771094-2.187414h-4.7121531l-1.0921154 2.187414h-6.034723l-3.735486 21.812586h3.275904l1.8392127-10.935286 12.8731615-.057094 2.0117218-10.820206z"/><path d="m72 11.5 2.1368026-1.3462501 3.5220799-5.6537499 12.2417276.053416 1.5012727 3.446584h2.5981172l-.8079674 3.3923334h-4.0998343l-1.674599-3.44616671h-7.5641388l-2.0212517 3.55383331z"/><path d="m128.00097 40.521124 1.143309-.059209c.015719.3612675.078594.6055046.187238.7322489.175218.2053812.49884.3085344.971327.3085344.393432 0 .677294-.0698481.852512-.2100069.175681-.1396963.263521-.3085344.263521-.5065145 0-.1711511-.072121-.3163982-.21544-.4352787-.100785-.0869633-.377712-.2280472-.83032-.4237145-.453071-.1952047-.783165-.3580294-.992132-.4884743-.208505-.1309074-.372165-.3002081-.491443-.5083648-.11974-.2086192-.179841-.4528564-.179841-.7322488 0-.4884743.178454-.893686.533976-1.2151724.355984-.3219489.871005-.4829234 1.545525-.4829234.685153 0 1.21543.1595868 1.591294.4787603.375863.3191736.582056.7442757.619504 1.2743813l-1.151631.0513453c-.028664-.2770796-.129911-.4893994-.302355-.6369593-.172444-.14756-.427643-.2215712-.764672-.2215712-.331943 0-.569112.0578213-.711043.1739264-.141931.1161052-.213128.26274-.213128.4394418 0 .1665254.064724.3034462.195098.4116877.130373.1110168.418396.2622773.864532.4551692.671746.2872562 1.099389.5208542 1.282466.7003315.273692.2641277.410075.6031917.410075 1.0171922 0 .5120654-.203881.9491943-.611182 1.3123121-.407301.3626551-.975488.5439827-1.702713.5439827-.502076 0-.936653-.0837252-1.304195-.2511757-.368004-.1674505-.627826-.4005859-.779004-.6984812-.15164-.2983579-.221449-.6415851-.211278-1.0292191"/><path d="m125.788815 38.6238938c-.105268.1693375-.250366.2932313-.436108.3726381-.185336.0789285-.562104.1186319-1.129491.1186319h-.559665l.286945-1.6125329h1.162412c.310519 0 .512519.0325282.605593.0980627.152008.1090648.228012.2726621.228012.49127 0 .1851232-.052431.3625927-.157698.5319302m1.211185-.5524994c0-.3573308-.067062-.6620426-.201187-.9127003-.134124-.2511361-.310112-.4238221-.528369-.5180579-.218664-.0937575-.523899-.1406362-.915705-.1406362h-2.279711l-1.075028 6h1.057145l.44505-2.4845731h.430824c.249553 0 .424728.0397035.525118.1186319.163388.1339393.317428.3941641.46212.7821096.266217.7175317.444643 1.245635.536092 1.5838316h1.134368c-.289384-.8567328-.552349-1.5202105-.788083-1.9894762-.119087-.2320019-.245895-.4185602-.381239-.5606314.529589-.0789285.925459-.2841426 1.186799-.6161206.261339-.3310213.391806-.7519732.391806-1.2623774"/><path d="m116 42.5 1.098658-6h3.901342l-.182901 1.0026309h-2.817682l-.251646 1.3628319h2.724773l-.182901 1.0031093h-2.724357l-.330389 1.628797h3.061828l-.187067 1.0026309z"/><path d="m113.751204 42.5h-1.147414l-1.615949-4.0315714-.840901 4.0315714h-1.14694l1.248796-6h1.151204l1.620213 4.0153073.83711-4.0153073h1.142677z"/><path d="m106.973824 42.5h-1.252527l1.061977-4.9973691h-1.783274l.211722-1.0026309h4.788278l-.21124 1.0026309h-1.758253z"/><path d="m101.788507 38.6238938c-.105259.1693375-.250346.2932313-.435666.3726381-.185727.0789285-.562058.1186319-1.1294.1186319h-.5600256l.2869219-1.6125329h1.1623177c.3109 0 .512477.0325282.60595.0980627.151589.1090648.227587.2726621.227587.49127 0 .1851232-.052426.3625927-.157685.5319302m1.211493-.5524994c0-.3573308-.067463-.6620426-.201577-.9127003-.134113-.2511361-.310087-.4238221-.528326-.5180579-.218646-.0937575-.523856-.1406362-.915631-.1406362h-2.2795249l-1.0749411 6h1.0574657l.444607-2.4845731h.4307892c.2499391 0 .4246931.0397035.5254811.1186319.162969.1339393.316996.3941641.461677.7821096.266601.7175317.445013 1.245635.536048 1.5838316h1.134276c-.289361-.8567328-.552304-1.5202105-.788019-1.9894762-.119077-.2320019-.245875-.4185602-.381208-.5606314.529545-.0789285.925384-.2841426 1.187109-.6161206.260912-.3310213.391774-.7519732.391774-1.2623774"/><path d="m94.1077904 40.1751973 1.2625217-2.4147333.3030052 2.4147333zm2.0436294-3.6751973h-1.1946353l-2.9567845 6h1.1056379l.6279493-1.3259986h2.0721914l.1742694 1.3259986h1.019952z"/><path d="m90.71595 38.7018656c-.1130718.1798613-.2681172.3109304-.4647079.392729-.197019.082277-.5893439.1229371-1.1774028.1229371h-.3430701l.3285078-1.7311648h.7970704c.3614871 0 .5949118.0210476.6989892.0631428.1045058.0425735.1863115.1100215.243704.2028223.0578208.0928007.086517.2114326.086517.3558957 0 .2157379-.0561075.4137766-.1696076.5936379m1.0848895-1.5407797c-.1327737-.2363071-.3126606-.4051663-.5405174-.5075341-.2274285-.1023679-.5366627-.1535518-.9281309-.1535518h-2.1989036l-1.1332876 6h1.1148707l.4317286-2.2879694h.7118383c.4796984 0 .8069213-.0133939.9816686-.0406601.3002399-.0464004.5383759-.1143267.7161213-.2028223.1768888-.0889739.3422135-.2190863.495974-.3908156s.283536-.400861.3893267-.6873954c.1057906-.2865343.1584718-.5812006.1584718-.8844774 0-.3271944-.0659585-.6089452-.1991605-.8447739"/></g></g></svg>